<?xml version="1.0" standalone="no"?>
<!DOCTYPE svg PUBLIC "-//W3C//DTD SVG 20010904//EN"
 "http://www.w3.org/TR/2001/REC-SVG-20010904/DTD/svg10.dtd">
<svg version="1.0" xmlns="http://www.w3.org/2000/svg"
 width="225.000000pt" height="225.000000pt" viewBox="0 0 225.000000 225.000000"
 preserveAspectRatio="xMidYMid meet">
<metadata>
Created by potrace 1.11, written by Peter Selinger 2001-2013
</metadata>
<g transform="translate(0.000000,225.000000) scale(0.100000,-0.100000)"
fill="#000000" stroke="none">
<path d="M966 2169 c-149 -51 -247 -167 -276 -328 -8 -44 -8 -78 0 -118 5 -31
8 -58 6 -61 -3 -2 -24 9 -48 26 -63 43 -132 64 -213 63 -127 0 -231 -50 -303
-144 -36 -47 -62 -89 -62 -100 0 -2 26 9 58 24 122 58 322 90 465 75 87 -10
90 -30 4 -34 -218 -10 -402 -171 -448 -389 -12 -63 -7 -173 12 -238 11 -39 12
-39 22 -15 76 192 218 379 380 504 40 31 76 56 80 56 3 0 -10 -17 -29 -37 -49
-54 -92 -147 -104 -229 -13 -85 3 -182 45 -264 29 -57 110 -144 162 -173 l32
-18 -15 36 c-62 150 -79 426 -35 603 21 84 25 93 44 90 18 -2 24 -14 34 -68
52 -283 33 -600 -53 -881 l-27 -87 -61 -12 c-90 -17 -259 -75 -335 -115 -121
-64 -209 -159 -225 -242 l-5 -33 1054 0 1055 0 0 23 c-1 79 -110 191 -255 262
-51 25 -96 45 -101 45 -5 0 -10 71 -10 158 0 163 -12 238 -55 370 -28 83 -22
96 36 87 109 -16 228 -73 316 -152 l51 -47 -6 34 c-4 19 -19 60 -34 90 -30 61
-93 111 -165 131 -40 11 -118 8 -162 -5 -11 -4 12 9 50 28 90 45 172 66 258
66 64 0 68 1 56 17 -28 33 -111 63 -176 63 -98 0 -170 -38 -223 -118 -39 -59
-38 -38 1 41 34 69 99 158 137 188 l25 19 -42 0 c-78 0 -165 -66 -191 -145 -7
-21 -10 -61 -8 -89 l4 -53 -43 25 c-52 29 -144 32 -198 6 -33 -15 -105 -88
-105 -105 0 -4 24 2 53 13 59 23 250 38 261 20 3 -6 -14 -13 -42 -17 -146 -21
-231 -117 -232 -260 0 -75 13 -115 23 -73 16 61 137 211 220 270 l28 20 -33
-53 c-29 -47 -32 -61 -32 -124 0 -83 24 -137 81 -184 20 -17 38 -29 40 -28 1
2 -5 25 -13 52 -31 99 -15 345 22 345 37 0 44 -350 9 -475 -9 -33 -20 -63 -23
-66 -4 -4 -59 4 -122 17 -147 30 -384 48 -525 39 l-110 -7 0 209 c-1 151 -6
241 -19 328 -20 132 -71 329 -109 422 l-24 59 24 22 c20 18 32 21 66 16 212
-31 411 -128 592 -289 l85 -76 -6 43 c-17 123 -59 210 -137 290 -63 64 -167
120 -254 139 -77 15 -204 6 -272 -20 -30 -11 -56 -19 -58 -18 -6 6 145 88 217
118 143 61 388 106 500 92 l45 -5 -29 30 c-35 37 -122 85 -195 106 -109 32
-259 15 -365 -42 -65 -34 -164 -134 -195 -195 -33 -68 -36 -52 -6 29 55 146
159 302 264 394 l56 50 -50 0 c-27 -1 -77 -10 -109 -21z"/>
</g>
</svg>
